<svg height="200px" width="200px" version="1.1" id="Layer_1" xmlns="http://www.w3.org/2000/svg" xmlns:xlink="http://www.w3.org/1999/xlink" viewBox="0 0 512 512" xml:space="preserve" fill="#000000"><g id="SVGRepo_bgCarrier" stroke-width="0"></g><g id="SVGRepo_tracerCarrier" stroke-linecap="round" stroke-linejoin="round"></g><g id="SVGRepo_iconCarrier"> <path style="fill:#A7CBE6;" d="M470.656,52.901c-16.671-16.671-38.576-25.01-60.475-25.01c-21.904,0-43.802,8.334-60.477,25.011 l-313.099,313.1c-13.067,13.067-20.264,30.44-20.263,48.918c0,18.479,7.196,35.853,20.263,48.919 c13.067,13.067,30.439,20.263,48.917,20.262c18.479,0,35.852-7.196,48.917-20.263l230.001-230c20.57-20.604,20.559-54.1-0.032-74.69 c-20.6-20.601-54.12-20.601-74.72,0l-30.814,30.814c-3.192,3.191-8.365,3.191-11.556,0s-3.191-8.365,0-11.555l30.797-30.796 c0.018-0.019,83.149-83.15,83.149-83.15c26.973-26.973,70.86-26.973,97.833,0c26.972,26.972,26.972,70.86,0,97.832L203.324,418.065 l11.56,11.56l255.771-255.771C504.002,140.507,504.002,86.248,470.656,52.901z M301.249,170.709c14.227-14.226,37.374-14.225,51.6,0 c6.883,6.883,10.675,16.047,10.675,25.801c-0.001,9.755-3.791,18.917-10.676,25.801L122.881,452.278 c-9.978,9.978-23.246,15.474-37.358,15.475c-14.112,0-27.379-5.495-37.359-15.475c-9.978-9.978-15.474-23.246-15.474-37.359 c0-14.113,5.495-27.379,15.473-37.358l176.044-176.043c3.192-3.191,8.365-3.191,11.556,0s3.191,8.365,0,11.555L117.049,331.788 l11.559,11.56L301.249,170.709z"></path> <g> <path style="fill:#082947;" d="M117.049,331.788l118.716-118.715c3.191-3.191,3.191-8.365,0-11.555 c-3.192-3.191-8.365-3.191-11.556,0L48.163,377.562c-9.977,9.978-15.473,23.246-15.473,37.358c0,14.112,5.495,27.379,15.474,37.359 c9.979,9.979,23.247,15.475,37.359,15.475c14.112-0.001,27.379-5.496,37.358-15.475L352.848,222.31 c6.883-6.883,10.675-16.046,10.676-25.801c0-9.755-3.79-18.917-10.675-25.801c-14.227-14.225-37.374-14.225-51.6,0l-172.641,172.64 L117.049,331.788z M341.294,182.264c3.797,3.797,5.887,8.855,5.887,14.245s-2.092,10.449-5.889,14.246L111.326,440.723 c-6.892,6.892-16.057,10.688-25.804,10.689c-9.745,0-18.909-3.796-25.802-10.689c-6.893-6.893-10.689-16.055-10.689-25.803 c0-9.747,3.795-18.91,10.688-25.803l45.774-45.773l17.337,17.338c1.533,1.533,3.61,2.394,5.779,2.394s4.245-0.861,5.779-2.394 l178.419-178.418C320.659,174.41,333.44,174.41,341.294,182.264z"></path> <path style="fill:#082947;" d="M482.212,41.346c-39.719-39.719-104.343-39.719-144.064,0L25.049,354.447 C8.894,370.599-0.001,392.077,0,414.92c0,22.845,8.897,44.322,25.049,60.474c16.153,16.153,37.629,25.049,60.473,25.049 c22.845,0,44.322-8.897,60.474-25.049l45.774-45.774l17.338,17.338c3.192,3.191,8.365,3.191,11.556,0l261.549-261.549 C521.929,145.691,521.929,81.065,482.212,41.346z M214.885,429.624l-11.56-11.56l255.772-255.771 c26.972-26.972,26.972-70.86,0-97.832c-26.973-26.973-70.86-26.973-97.833,0l-83.132,83.132 c-0.019,0.019-30.814,30.814-30.814,30.814c-3.191,3.191-3.191,8.365,0,11.555c3.192,3.191,8.365,3.191,11.556,0l30.814-30.813 c20.6-20.601,54.12-20.601,74.72,0c20.591,20.591,20.602,54.086,0.032,74.69L134.439,463.838 c-13.065,13.067-30.437,20.263-48.917,20.263c-18.478,0-35.85-7.195-48.917-20.262c-13.067-13.066-20.263-30.44-20.263-48.919 c-0.001-18.478,7.195-35.851,20.263-48.918l313.099-313.1c16.675-16.675,38.572-25.011,60.477-25.011 c21.899,0,43.804,8.339,60.475,25.01c33.346,33.346,33.346,87.606,0,120.953L214.885,429.624z M375.965,147.593 c-13.486-13.486-31.202-20.229-48.916-20.229c-1.941,0-3.882,0.082-5.819,0.243l51.59-51.589c20.6-20.601,54.12-20.601,74.72,0 c20.601,20.601,20.601,54.12,0,74.721l-51.589,51.589C397.591,182.727,390.929,162.558,375.965,147.593z"></path> </g> </g></svg>